<?xml version="1.0" encoding="UTF-8" standalone="no"?>
<svg
   viewBox="0 0 512 512"
   width="512"
   height="512"
   version="1.1"
   id="svg7"
   sodipodi:docname="No background.svg"
   inkscape:export-filename="NoBackground.png"
   inkscape:export-xdpi="96"
   inkscape:export-ydpi="96"
   inkscape:version="1.4.3 (0d15f75, 2025-12-25)"
   xmlns:inkscape="http://www.inkscape.org/namespaces/inkscape"
   xmlns:sodipodi="http://sodipodi.sourceforge.net/DTD/sodipodi-0.dtd"
   xmlns="http://www.w3.org/2000/svg"
   xmlns:svg="http://www.w3.org/2000/svg">
  <sodipodi:namedview
     id="namedview7"
     pagecolor="#505050"
     bordercolor="#ffffff"
     borderopacity="1"
     inkscape:showpageshadow="0"
     inkscape:pageopacity="0"
     inkscape:pagecheckerboard="1"
     inkscape:deskcolor="#505050"
     inkscape:zoom="1.7050781"
     inkscape:cx="256.29324"
     inkscape:cy="256"
     inkscape:window-width="1325"
     inkscape:window-height="1022"
     inkscape:window-x="46"
     inkscape:window-y="30"
     inkscape:window-maximized="0"
     inkscape:current-layer="svg7" />
  <defs
     id="defs6">
    <linearGradient
       id="bgD"
       x1="0%"
       y1="0%"
       x2="100%"
       y2="100%">
      <stop
         offset="0%"
         stop-color="#0f172a"
         id="stop1" />
      <stop
         offset="100%"
         stop-color="#0b1120"
         id="stop2" />
    </linearGradient>
    <linearGradient
       id="leftG"
       x1="0%"
       y1="0%"
       x2="0%"
       y2="100%">
      <stop
         offset="0%"
         stop-color="#3b82f6"
         id="stop3" />
      <stop
         offset="100%"
         stop-color="#1d4ed8"
         id="stop4" />
    </linearGradient>
    <linearGradient
       id="rightG"
       x1="0%"
       y1="0%"
       x2="0%"
       y2="100%">
      <stop
         offset="0%"
         stop-color="#7cb8ff"
         id="stop5" />
      <stop
         offset="100%"
         stop-color="#3b82f6"
         id="stop6" />
    </linearGradient>
  </defs>
  <rect
     width="512"
     height="512"
     rx="108"
     fill="url(#bgD)"
     id="rect6"
     style="fill:none;fill-opacity:1" />
  <!-- Left half -->
  <path
     d="     M 148 112     L 232 112     A 12 12 0 0 1 244 124     L 244 374     A 26 26 0 0 1 218 400     A 26 26 0 0 1 192 374     L 192 164     L 148 164     A 26 26 0 0 1 122 138     A 26 26 0 0 1 148 112     Z   "
     fill="url(#leftG)"
     id="path6" />
  <!-- Right half -->
  <path
     d="     M 280 112     L 364 112     A 26 26 0 0 1 390 138     A 26 26 0 0 1 364 164     L 320 164     L 320 374     A 26 26 0 0 1 294 400     A 26 26 0 0 1 268 374     L 268 124     A 12 12 0 0 1 280 112     Z   "
     fill="url(#rightG)"
     id="path7" />
</svg>
